<!-- Created with Inkscape (http://www.inkscape.org/) -->
<svg id="svg3004" xmlns:rdf="http://www.w3.org/1999/02/22-rdf-syntax-ns#" xmlns="http://www.w3.org/2000/svg" height="114.17" width="487.46" version="1.1" xmlns:cc="http://creativecommons.org/ns#" xmlns:dc="http://purl.org/dc/elements/1.1/">
 <metadata id="metadata3006">
  <rdf:RDF>
   <cc:Work rdf:about="">
    <dc:format>image/svg+xml</dc:format>
    <dc:type rdf:resource="http://purl.org/dc/dcmitype/StillImage"/>
    <dc:title/>
   </cc:Work>
  </rdf:RDF>
 </metadata>
 <path id="path3012" fill="#000" d="m0.12392,59.484-0.0173-11.598,31.719,0c1.0543,0.00001,1.772-0.205,2.153-0.61504,0.43956-0.41002,0.65764-1.1715,0.65423-2.2844l-0.007-8.2592c0.008-0.23428-0.0311-0.55645-0.11855-0.9665-0.22526-1.0543-1.0994-1.5815-2.6222-1.5815h-23.46c-2.4016,0.00002-4.2652-0.49787-5.5909-1.4937-1.2795-1.055-2.1195-2.519-2.5199-4.394-0.15016-0.702-0.24367-1.552-0.28069-2.548l-0.0335-15.376c0.0107-3.5145,0.74257-6.1211,2.1956-7.8198,1.453-1.6986,4.1124-2.548,7.9785-2.548h36.99l0.0488,11.334h-31.543c-0.93723,0.00005-1.5671,0.20507-1.8895,0.61505-0.32246,0.41007-0.48821,1.1423-0.49728,2.1966l0.00099,7.8198c-0.009,0.23434-0.0233,0.43936-0.0443,0.61505,0.0375,0.17576,0.0751,0.35149,0.11261,0.52718,0.18768,0.87867,0.92585,1.318,2.2145,1.318h23.811c2.4601,0.00004,4.33,0.52722,5.6096,1.5815,1.3381,1.0544,2.2074,2.5188,2.6078,4.3932,0.16261,0.76151,0.24995,1.5816,0.26194,2.4602l0.0455,16.255c-0.0108,3.5145-0.74264,6.1212-2.1956,7.8198-1.453,1.6987-4.0832,2.548-7.8906,2.548h-37.693"/>
 <path id="path3014" fill="#000" d="m60.344,59.484c-2.5188,0-4.4222-0.41003-5.7103-1.2301-1.2421-0.87863-2.057-2.2259-2.4448-4.0417-0.17517-0.82005-0.27272-1.9623-0.29265-3.4267l-0.0696-27.062c0.006-2.9873,0.59136-5.1839,1.7554-6.5898,1.2227-1.4058,3.4449-2.1087,6.6665-2.1087h30.049c2.2258,0.00004,3.9012,0.43936,5.0261,1.318,1.1709,0.8201,1.9378,2.0795,2.3007,3.7781,0.22517,1.0544,0.33949,2.138,0.34299,3.251l0.0447,17.485h-29.61l-0.0829-7.3805h17.924l0.0417-5.9747c-0.004-0.29285-0.0561-0.67359-0.15609-1.1422-0.10014-0.46858-0.3154-0.79074-0.64578-0.9665-0.27187-0.17569-0.75924-0.26356-1.4621-0.26359h-17.661c-0.9958,0.00003-1.6319,0.17576-1.9083,0.52718-0.2889,0.29291-0.44415,0.93724-0.46572,1.933l-0.0381,19.154c0.004,0.2929,0.002,0.55649-0.007,0.79078,0.0375,0.17573,0.0751,0.35146,0.11261,0.52718,0.11261,0.52719,0.33411,0.87864,0.66455,1.0544,0.3304,0.17573,0.87635,0.2636,1.6378,0.26359h29.961l0.0496,10.104h-36.024"/>
 <path id="path3016" fill="#000" d="m145.84,59.484-30.826-39.011,0.074,39.011-12.389,0l-0.13-59.484h12.56l27.09,35.497-0.11-35.497h12.477l0.14241,59.484h-8.8742"/>
 <path id="path3018" fill="#000" d="m160.35,59.484-0.0461-43.405,13.18,0,0.0288,31.807,18.715,0c3.1045,0.00001,4.6602-1.9037,4.6668-5.7111l-0.0208-24.777c0.0255-0.70287-0.0305-1.3765-0.1681-2.0209-0.52555-2.4601-2.0477-3.6902-4.5664-3.6903h-31.894l-0.036-11.686h34.355c8.6691,0.00006,13.755,3.5146,15.256,10.544,0.31275,1.4644,0.46861,3.0167,0.46756,4.6568l-0.0259,29.083c0.009,4.9789-1.2632,8.7571-3.8172,11.334-2.5541,2.5773-6.4669,3.866-11.738,3.866h-34.355"/>
 <path id="path3020" fill="#000" d="m222.8,59.484c-2.5188,0-4.4222-0.41003-5.7103-1.2301-1.2421-0.87863-2.057-2.2259-2.4448-4.0417-0.17517-0.82005-0.27272-1.9623-0.29265-3.4267l-0.0696-27.062c0.006-2.9873,0.59136-5.1839,1.7554-6.5898,1.2227-1.4058,3.4449-2.1087,6.6665-2.1087h30.049c2.2258,0.00004,3.9012,0.43936,5.0261,1.318,1.1709,0.8201,1.9378,2.0795,2.3007,3.7781,0.22517,1.0544,0.33949,2.138,0.34299,3.251l0.0447,17.485h-29.61l-0.0829-7.3805h17.924l0.0418-5.9747c-0.004-0.29285-0.0561-0.67359-0.15609-1.1422-0.10014-0.46858-0.3154-0.79074-0.64578-0.9665-0.27187-0.17569-0.75924-0.26356-1.4621-0.26359h-17.661c-0.9958,0.00003-1.6319,0.17576-1.9082,0.52718-0.28891,0.29291-0.44416,0.93724-0.46573,1.933l-0.0381,19.154c0.004,0.2929,0.002,0.55649-0.007,0.79078,0.0375,0.17573,0.0751,0.35146,0.11261,0.52718,0.11261,0.52719,0.33411,0.87864,0.66455,1.0544,0.3304,0.17573,0.87635,0.2636,1.6378,0.26359h29.961l0.0496,10.104h-36.024"/>
 <path id="path3022" fill="#000" d="m274.91,59.484c-2.9874,0-5.238-0.52718-6.7518-1.5815-1.5139-1.0544-2.5086-2.6945-2.984-4.9204-0.12513-0.58575-0.22094-1.1715-0.28748-1.7573-0.079-0.64432-0.11205-1.3472-0.099-2.1087l-0.10567-38.748c0.0107-3.5145,0.74257-6.1211,2.1956-7.8198,1.5116-1.6986,4.1417-2.548,7.8906-2.548h33.476l0.0736,11.862h-26.886c-1.4058,0.00005-2.3223,0.23435-2.7494,0.70291-0.38103,0.41008-0.57409,1.2887-0.57914,2.6359l-0.0447,28.995c0.004,0.29289,0.002,0.55648-0.007,0.79077,0.0375,0.17574,0.0813,0.38075,0.13138,0.61504,0.13762,0.64435,0.44274,1.113,0.91533,1.4058,0.47258,0.2929,1.2654,0.43933,2.3782,0.43932h27.062l0.0232,12.037h-33.652"/>
 <path id="path3024" fill="#000" d="m320.24,59.484c-2.4602,0-4.3343-0.41003-5.6225-1.2301-1.2421-0.87863-2.057-2.2259-2.4448-4.0417-0.17517-0.82005-0.27272-1.9623-0.29265-3.4267l-0.0696-27.062c0.006-2.9873,0.59136-5.1839,1.7554-6.5898,1.2227-1.4058,3.4156-2.1087,6.5787-2.1087h30.225c2.5773,0.00004,4.487,0.43936,5.729,1.318,1.2295,0.8201,2.0382,2.138,2.4261,3.9538,0.17512,0.8201,0.27267,1.9623,0.29266,3.4267l0.0696,27.062c-0.006,2.9874-0.62065,5.184-1.8432,6.5898-1.1641,1.4058-3.3571,2.1087-6.5787,2.1087h-30.225m26.23-31.367c-0.008-0.58572-0.0245-0.93717-0.0495-1.0544-0.20024-0.93717-1.0911-1.4058-2.6726-1.4058h-17.397c-0.93723,0.00003-1.5732,0.17576-1.9083,0.52718-0.28891,0.29291-0.41486,0.93724-0.37786,1.933l0.0883,18.1c-0.009,0.23432-0.0233,0.43933-0.0443,0.61505,0.0375,0.17574,0.0751,0.35146,0.11261,0.52718,0.17516,0.82007,0.90708,1.2301,2.1958,1.2301h17.397c1.0543,0.00001,1.7783-0.17572,2.1718-0.52718,0.3935-0.35145,0.58428-0.96649,0.57237-1.8451l-0.0883-18.1"/>
 <path id="path3026" fill="#000" d="M424.25,59.484,424.14,28.117c0.008-0.23427-0.006-0.43928-0.0435-0.61504,0.021-0.1757,0.0127-0.35142-0.0247-0.52718-0.18775-0.8786-1.0138-1.3179-2.4781-1.318h-13.18c-0.93727,0.00003-1.5734,0.17576-1.9083,0.52718-0.34751,0.29291-0.52152,0.84938-0.52204,1.6694l0.0791,31.631h-12.301l-0.11052-31.367c0.008-0.23427-0.006-0.43928-0.0435-0.61504,0.021-0.1757,0.0127-0.35142-0.0247-0.52718-0.18771-0.8786-0.98446-1.3179-2.3902-1.318h-13.267c-0.87866,0.00003-1.4855,0.17576-1.8204,0.52718-0.34749,0.29291-0.53202,0.93724-0.55359,1.933l0.11051,31.367h-12.301l-0.0955-44.459h11.862l-0.0221,4.8325c1.4205-3.2216,3.976-4.8324,7.6662-4.8325h14.849c2.2258,0.00004,3.9765,0.38078,5.2522,1.1422,1.2756,0.76153,2.124,1.9916,2.5456,3.6903,0.98436-1.6986,2.0688-2.9287,3.2534-3.6903,1.1846-0.76144,2.714-1.1422,4.5885-1.1422h14.849c2.3429,0.00004,4.1648,0.43936,5.4654,1.318,1.288,0.8201,2.1385,2.1966,2.5515,4.1296,0.22515,1.0544,0.33947,2.138,0.34298,3.2509l0.0825,35.76h-12.301"/>
 <path id="path3028" fill="#000" d="m458.03,59.484-0.0557-10.544,14.761,0c0.87859,0.00001,1.4623-0.14643,1.7512-0.43932,0.33492-0.35144,0.51318-1.0251,0.53482-2.0209l0.0185-18.012c-0.004-0.29285-0.0561-0.67359-0.15609-1.1422-0.11264-0.52715-0.33416-0.8786-0.66455-1.0544-0.28438-0.23427-0.77802-0.35142-1.4809-0.35145h-19.154l-0.0105,52.191h-12.301l-0.0328-63.086h37.606c2.5773,0.00004,4.487,0.43936,5.729,1.318,1.242,0.87867,2.057,2.2259,2.4448,4.0417,0.23769,1.113,0.35826,2.2259,0.36174,3.3388l0.0696,27.062c0.006,3.0459-0.71909,5.2718-2.176,6.6776-1.4109,1.3472-3.5222,2.0209-6.3338,2.0209h-20.911"/>
 <path id="path3032" fill="#000" d="m75.463,103.26,2.3673-11.373c0.0343-0.17153,0.0514-0.30877,0.0515-0.4117,0.0343-0.13722,0.0514-0.2573,0.0515-0.36024-0.00003-0.54892-0.48035-0.82339-1.441-0.8234h-11.27l-2.7275,12.969h-7.8223l5.4036-25.474h7.8223l-1.441,6.7416h10.704c0.75476,0.00002,1.2522-0.12006,1.4924-0.36024,0.27444-0.24014,0.49744-0.72046,0.66901-1.441l1.2351-5.6609c0.0343-0.17151,0.0514-0.3259,0.0515-0.46316,0.0343-0.13721,0.0514-0.25729,0.0515-0.36024-0.00003-0.41167-0.12011-0.68614-0.36024-0.8234-0.24018-0.13721-0.65189-0.20583-1.2351-0.20585h-18.475l1.441-6.7931h22.129c1.784,0.00003,3.0706,0.32596,3.8597,0.97779,0.78906,0.61758,1.1836,1.5782,1.1836,2.8819-0.00004,0.30881-0.0343,0.63474-0.10293,0.97779-0.0344,0.34312-0.0858,0.70336-0.15439,1.0807l-1.5953,7.565c-0.37743,1.7841-1.0636,3.0535-2.0585,3.8082-0.99498,0.7205-2.0928,1.1494-3.2936,1.2866,1.0978,0.0686,2.0242,0.32595,2.779,0.77194,0.75475,0.41172,1.1322,1.1665,1.1322,2.2644-0.00003,0.17156-0.00003,0.36025,0,0.56609-0.00003,0.17156-0.0343,0.36025-0.10292,0.56609l-2.5217,12.094h-7.8223"/>
 <path id="path3034" fill="#000" d="m90.343,103.26c-1.4753,0-2.5388-0.24016-3.1907-0.72048-0.61756-0.51462-0.92634-1.3037-0.92633-2.3673-0.00001-0.48032,0.0858-1.1493,0.25731-2.007l3.3451-15.851c0.37738-1.7497,0.99494-3.0363,1.8527-3.8597,0.89201-0.82338,2.2815-1.2351,4.1685-1.2351h17.6c1.3037,0.00003,2.23,0.25734,2.779,0.77194,0.58321,0.48035,0.87483,1.218,0.87486,2.2129-0.00003,0.61758-0.0687,1.2523-0.20585,1.9041l-2.1614,10.241h-17.343l0.87486-4.3229h10.498l0.77194-3.4995c0.0343-0.17152,0.0514-0.39453,0.0515-0.66902-0.00002-0.27444-0.0858-0.46314-0.25731-0.56609-0.13726-0.1029-0.41173-0.15436-0.8234-0.15438h-10.344c-0.58326,0.00002-0.97781,0.10294-1.1836,0.30877-0.20587,0.17156-0.37741,0.54896-0.51463,1.1322l-2.4188,11.219c-0.0343,0.17155-0.0686,0.32593-0.10292,0.46316-0.00002,0.10293-0.00002,0.20586,0,0.30878-0.00002,0.30878,0.0858,0.51463,0.25731,0.61755,0.17153,0.10293,0.48031,0.15439,0.92633,0.15439h17.549l-1.2351,5.9182h-21.1"/>
 <path id="path3036" fill="#000" d="m114.79,103.26,1.2351-5.9697,17.858,0c0.54891,0,0.90915-0.0858,1.0807-0.25732,0.20583-0.17153,0.36022-0.49746,0.46317-0.97779l0.56609-2.5731c0.0343-0.10291,0.0514-0.24015,0.0515-0.4117-0.00002-0.446-0.34311-0.669-1.0292-0.66901h-13.946c-1.1665,0.00001-2.0242-0.223-2.5731-0.66902-0.51463-0.48031-0.77194-1.115-0.77194-1.9041,0-0.34307,0.0515-0.72046,0.15439-1.1322l1.441-6.9475c0.30876-1.5439,0.89201-2.676,1.7497-3.3965,0.8577-0.75476,2.1957-1.1322,4.0141-1.1322h21.511l-1.2351,5.8153h-17.755c-0.54895,0.00002-0.94349,0.10295-1.1836,0.30878-0.24017,0.20587-0.41171,0.56611-0.51463,1.0807l-0.46316,2.1614c-0.0343,0.10294-0.0515,0.25733-0.0515,0.46316-0.00002,0.54895,0.36022,0.82342,1.0807,0.82341h14.101c1.2008,0.00001,2.0585,0.24017,2.5731,0.72048,0.5489,0.48033,0.82337,1.115,0.8234,1.9041-0.00003,0.17155-0.0172,0.34309-0.0515,0.51462-0.00003,0.17156-0.0172,0.3431-0.0515,0.51463l-1.5439,7.2048c-0.34311,1.5439-0.94351,2.6932-1.8012,3.448-0.85774,0.72048-2.1958,1.0807-4.0141,1.0807h-21.717"/>
 <path id="path3038" fill="#000" d="m148.5,103.26c-1.4753,0-2.5388-0.24016-3.1907-0.72048-0.61756-0.51462-0.92633-1.3037-0.92633-2.3673,0-0.48032,0.0858-1.1493,0.25731-2.007l3.3451-15.851c0.37739-1.7497,0.99494-3.0363,1.8527-3.8597,0.89201-0.82338,2.2815-1.2351,4.1685-1.2351h17.6c1.3037,0.00003,2.23,0.25734,2.779,0.77194,0.58321,0.48035,0.87483,1.218,0.87486,2.2129-0.00003,0.61758-0.0686,1.2523-0.20585,1.9041l-2.1614,10.241h-17.343l0.87487-4.3229h10.498l0.77194-3.4995c0.0343-0.17152,0.0514-0.39453,0.0515-0.66902-0.00003-0.27444-0.0858-0.46314-0.25732-0.56609-0.13726-0.1029-0.41172-0.15436-0.8234-0.15438h-10.344c-0.58326,0.00002-0.9778,0.10294-1.1836,0.30877-0.20587,0.17156-0.37741,0.54896-0.51463,1.1322l-2.4188,11.219c-0.0343,0.17155-0.0686,0.32593-0.10292,0.46316-0.00001,0.10293-0.00001,0.20586,0,0.30878-0.00001,0.30878,0.0858,0.51463,0.25731,0.61755,0.17153,0.10293,0.48031,0.15439,0.92633,0.15439h17.549l-1.2351,5.9182h-21.1"/>
 <path id="path3040" fill="#000" d="m177.38,103.26c-1.3037,0-2.2472-0.24016-2.8304-0.72048-0.58325-0.51462-0.87487-1.2694-0.87487-2.2644,0-0.48031,0.0858-1.115,0.25732-1.9041l1.2866-6.1755c0.20585-0.96063,0.44601-1.7669,0.72048-2.4188,0.27446-0.65185,0.61755-1.1665,1.0293-1.5439,0.41169-0.37738,0.90916-0.6347,1.4924-0.77194,0.58323-0.17153,1.2866-0.2573,2.11-0.25732h13.226l-0.92633,4.4258h-9.4691c-0.48033,0.00001-0.82342,0.0858-1.0293,0.25731-0.20586,0.17155-0.36025,0.53179-0.46316,1.0807l-0.56609,2.7275c-0.0343,0.17155-0.0686,0.30878-0.10293,0.4117-0.00001,0.10294-0.00001,0.20586,0,0.30878-0.00001,0.44602,0.32592,0.66902,0.9778,0.66901h12.042l2.7275-12.763c0.0343-0.13722,0.0514-0.32591,0.0515-0.56609-0.00003-0.27445-0.0858-0.4803-0.25731-0.61755-0.17157-0.17153-0.4975-0.2573-0.9778-0.25732h-17.652l1.1836-5.6609h21.306c1.5095,0.00003,2.5731,0.25734,3.1907,0.77194,0.61752,0.48035,0.92629,1.2523,0.92633,2.3158-0.00004,0.48034-0.0858,1.1494-0.25731,2.007l-4.4258,20.945h-22.695"/>
 <path id="path3042" fill="#000" d="m202.59,103.26,5.5065-26.04,6.9989,0-0.61755,2.8304c0.65184-0.99492,1.3723-1.7154,2.1614-2.1614,0.82339-0.44599,1.8012-0.66899,2.9334-0.66902h7.565l-1.338,6.227h-10.395c-0.51465,0.00002-0.90919,0.10295-1.1836,0.30878-0.24017,0.17156-0.42887,0.54895-0.56609,1.1322l-3.8597,18.372h-7.2048"/>
 <path id="path3044" fill="#000" d="m227.81,103.26c-1.441,0-2.4874-0.24016-3.1392-0.72048-0.61755-0.51462-0.92633-1.3037-0.92633-2.3673,0-0.48032,0.0858-1.1493,0.25732-2.007l3.3451-15.851c0.37739-1.7497,0.99494-3.0363,1.8527-3.8597,0.89201-0.82338,2.2644-1.2351,4.117-1.2351h18.372l-1.338,6.3299h-14.667c-0.58326,0.00002-0.97781,0.0858-1.1836,0.25731-0.20586,0.17156-0.3774,0.54896-0.51462,1.1322l-2.2129,10.395c-0.0343,0.13724-0.0686,0.25732-0.10293,0.36024-0.00001,0.10293-0.00001,0.20586,0,0.30878-0.00001,0.51463,0.39454,0.77195,1.1836,0.77194h14.667l-1.338,6.4843h-18.372"/>
 <path id="path3046" fill="#000" d="m269.19,103.26,3.8597-18.372c0.0686-0.34307,0.1029-0.54892,0.10293-0.61755-0.00003-0.54892-0.42888-0.82339-1.2866-0.82341h-10.756c-0.51464,0.00002-0.89203,0.10295-1.1322,0.30878-0.24017,0.17156-0.42887,0.54895-0.56609,1.1322l-3.8597,18.372h-7.2048l7.8223-36.95h7.2048l-2.9334,13.741c0.68615-0.99492,1.4238-1.7154,2.2129-2.1614,0.82339-0.44599,1.784-0.66899,2.8819-0.66902h11.425c1.4066,0.00003,2.4187,0.24019,3.0363,0.72048,0.65183,0.48034,0.97776,1.2866,0.97779,2.4188-0.00003,0.65188-0.0687,1.3037-0.20585,1.9556l-4.4258,20.945h-7.1533"/>
 <path id="path3048" fill="#000" d="m296.19,103.26c-1.7497,0-3.0192-0.30877-3.8082-0.92633-0.75479-0.61755-1.1322-1.561-1.1322-2.8304-0.00001-0.65185,0.10292-1.4238,0.30877-2.3158l4.786-22.695c0.446-2.0585,1.2008-3.5852,2.2644-4.5802,1.0636-0.99492,2.7104-1.4924,4.9404-1.4924h21.511l-1.441,6.9475h-18.115c-0.68619,0.00003-1.1665,0.12011-1.441,0.36024-0.24018,0.24019-0.44603,0.75482-0.61756,1.5439l-3.7568,17.755c-0.0686,0.34309-0.10293,0.56609-0.10292,0.66901-0.00001,0.34309,0.10291,0.58325,0.30877,0.72048,0.20584,0.10293,0.56608,0.15439,1.0807,0.15439h11.167l1.6983-7.9253h-6.896l1.1836-5.6094h14.204l-4.2714,20.225h-21.872"/>
 <path id="path3050" fill="#000" d="m320.66,103.26,5.5065-26.04,6.9989,0-0.61756,2.8304c0.65185-0.99492,1.3723-1.7154,2.1614-2.1614,0.82338-0.44599,1.8012-0.66899,2.9334-0.66902h7.565l-1.338,6.227h-10.395c-0.51464,0.00002-0.90919,0.10295-1.1836,0.30878-0.24017,0.17156-0.42887,0.54895-0.56609,1.1322l-3.8597,18.372h-7.2048"/>
 <path id="path3052" fill="#000" d="m345.89,103.26c-1.441,0-2.4874-0.24016-3.1392-0.72048-0.61756-0.51462-0.92634-1.3037-0.92633-2.3673-0.00001-0.48032,0.0858-1.1493,0.25731-2.007l3.3451-15.851c0.37739-1.7497,0.99494-3.0363,1.8527-3.8597,0.89201-0.82338,2.2644-1.2351,4.117-1.2351h17.703c1.5095,0.00003,2.5731,0.25734,3.1907,0.77194,0.61752,0.48035,0.9263,1.2523,0.92633,2.3158-0.00003,0.48034-0.0858,1.1494-0.25731,2.007l-3.3451,15.851c-0.37742,1.7497-1.0121,3.0363-1.9041,3.8597-0.85774,0.8234-2.2301,1.2351-4.117,1.2351h-17.703m19.299-18.372c0.0686-0.34307,0.10289-0.54892,0.10292-0.61755-0.00003-0.54892-0.46319-0.82339-1.3895-0.82341h-10.19c-0.54895,0.00002-0.9435,0.10295-1.1836,0.30878-0.20587,0.17156-0.36026,0.54895-0.46317,1.1322l-2.2129,10.601c-0.0343,0.13724-0.0686,0.25732-0.10292,0.36024-0.00001,0.10293-0.00001,0.20586,0,0.30878-0.00001,0.48032,0.37738,0.72048,1.1322,0.72047h10.19c0.61753,0.00001,1.0635-0.10291,1.338-0.30877,0.27444-0.20585,0.46314-0.56609,0.56609-1.0807l2.2129-10.601"/>
 <path id="path3054" fill="#000" d="m391.58,103.26,0.56609-2.779c-0.65188,0.99495-1.3895,1.7154-2.2129,2.1614-0.78911,0.4117-1.7326,0.61755-2.8304,0.61755h-11.322c-1.3723,0-2.4016-0.24016-3.0878-0.72048-0.65186-0.48031-0.97779-1.2866-0.97779-2.4187,0-0.51463,0.0858-1.1665,0.25731-1.9556l4.4258-20.945h7.2048l-3.9112,18.372c-0.0686,0.34309-0.10294,0.56609-0.10292,0.66901-0.00002,0.54894,0.41169,0.82341,1.2351,0.8234h10.344c0.54891,0.00001,0.94346-0.10291,1.1836-0.30877,0.24014-0.20585,0.42883-0.60039,0.56609-1.1836l3.9112-18.372h7.2048l-5.5065,26.04h-6.9475"/>
 <path id="path3056" fill="#000" d="m410.91,103.26,1.2866-6.1755,8.6457,0c0.5146,0.00001,0.87484-0.0858,1.0807-0.25731,0.24014-0.20584,0.42884-0.60039,0.56609-1.1836l2.2644-10.55c0.0343-0.17152,0.0514-0.39453,0.0515-0.66902-0.00003-0.30875-0.0858-0.5146-0.25732-0.61755-0.13726-0.13721-0.41173-0.20583-0.8234-0.20585h-11.219l-6.5358,30.569h-7.2048l7.8738-36.95h22.026c1.5095,0.00003,2.5731,0.25734,3.1907,0.77194,0.61752,0.51466,0.92629,1.3038,0.92633,2.3673-0.00004,0.65188-0.0687,1.3037-0.20585,1.9556l-3.3451,15.851c-0.37742,1.784-1.0808,3.0878-2.11,3.9112-0.99498,0.78909-2.3158,1.1836-3.9626,1.1836h-12.248"/>
</svg>
