<?xml version="1.0" encoding="UTF-8" standalone="no"?>
<!-- Created with Inkscape (http://www.inkscape.org/) -->

<svg
   xmlns:dc="http://purl.org/dc/elements/1.1/"
   xmlns:cc="http://creativecommons.org/ns#"
   xmlns:rdf="http://www.w3.org/1999/02/22-rdf-syntax-ns#"
   xmlns:svg="http://www.w3.org/2000/svg"
   xmlns="http://www.w3.org/2000/svg"
   xmlns:sodipodi="http://sodipodi.sourceforge.net/DTD/sodipodi-0.dtd"
   xmlns:inkscape="http://www.inkscape.org/namespaces/inkscape"
   id="svg3004"
   height="78.11087"
   width="487.45105"
   version="1.1"
   inkscape:version="0.91 r13725"
   sodipodi:docname="brand-alt.svg">
  <defs
     id="defs28" />
  <sodipodi:namedview
     pagecolor="#ffffff"
     bordercolor="#666666"
     borderopacity="1"
     objecttolerance="10"
     gridtolerance="10"
     guidetolerance="10"
     inkscape:pageopacity="0"
     inkscape:pageshadow="2"
     inkscape:window-width="1314"
     inkscape:window-height="767"
     id="namedview26"
     showgrid="false"
     inkscape:zoom="0.63594963"
     inkscape:cx="243.72989"
     inkscape:cy="21.025731"
     inkscape:window-x="97"
     inkscape:window-y="23"
     inkscape:window-maximized="0"
     inkscape:current-layer="svg3004"
     fit-margin-top="0"
     fit-margin-left="0"
     fit-margin-right="0"
     fit-margin-bottom="0" />
  <metadata
     id="metadata3006">
    <rdf:RDF>
      <cc:Work
         rdf:about="">
        <dc:format>image/svg+xml</dc:format>
        <dc:type
           rdf:resource="http://purl.org/dc/dcmitype/StillImage" />
        <dc:title></dc:title>
      </cc:Work>
    </rdf:RDF>
  </metadata>
  <path
     id="path3012"
     d="m 0.12381,59.48414 -0.0173,-11.598 31.719,0 c 1.0543,1e-5 1.772,-0.205 2.153,-0.61504 0.43956,-0.41002 0.65764,-1.1715 0.65423,-2.2844 l -0.007,-8.2592 c 0.008,-0.23428 -0.0311,-0.55645 -0.11855,-0.9665 -0.22526,-1.0543 -1.0994,-1.5815 -2.6222,-1.5815 l -23.46,0 c -2.4016,2e-5 -4.2652,-0.49787 -5.5909,-1.4937 -1.2795,-1.055 -2.1195,-2.519 -2.5199,-4.394 -0.15016,-0.702 -0.24367,-1.552 -0.28069,-2.548 L 0,10.3678 C 0.0107,6.8533 0.74257,4.2467 2.1956,2.548 3.6486,0.8494 6.308,0 10.1741,0 l 36.99,0 0.0488,11.334 -31.543,0 c -0.93723,5e-5 -1.5671,0.20507 -1.8895,0.61505 -0.32246,0.41007 -0.48821,1.1423 -0.49728,2.1966 l 9.9e-4,7.8198 c -0.009,0.23434 -0.0233,0.43936 -0.0443,0.61505 0.0375,0.17576 0.0751,0.35149 0.11261,0.52718 0.18768,0.87867 0.92585,1.318 2.2145,1.318 l 23.811,0 c 2.4601,4e-5 4.33,0.52722 5.6096,1.5815 1.3381,1.0544 2.2074,2.5188 2.6078,4.3932 0.16261,0.76151 0.24995,1.5816 0.26194,2.4602 l 0.0455,16.255 c -0.0108,3.5145 -0.74264,6.1212 -2.1956,7.8198 -1.453,1.6987 -4.0832,2.548 -7.8906,2.548 l -37.693,0"
     inkscape:connector-curvature="0"
     style="fill:#000000" />
  <path
     id="path3014"
     d="m 60.34389,59.48414 c -2.5188,0 -4.4222,-0.41003 -5.7103,-1.2301 -1.2421,-0.87863 -2.057,-2.2259 -2.4448,-4.0417 -0.17517,-0.82005 -0.27272,-1.9623 -0.29265,-3.4267 l -0.0696,-27.062 c 0.006,-2.9873 0.59136,-5.1839 1.7554,-6.5898 1.2227,-1.4058 3.4449,-2.1087 6.6665,-2.1087 l 30.049,0 c 2.2258,4e-5 3.9012,0.43936 5.0261,1.318 1.1709,0.8201 1.9378,2.0795 2.3007,3.7781 0.22517,1.0544 0.33949,2.138 0.34299,3.251 l 0.0447,17.485 -29.61,0 -0.0829,-7.3805 17.924,0 0.0417,-5.9747 c -0.004,-0.29285 -0.0561,-0.67359 -0.15609,-1.1422 -0.10014,-0.46858 -0.3154,-0.79074 -0.64578,-0.9665 -0.27187,-0.17569 -0.75924,-0.26356 -1.4621,-0.26359 l -17.661,0 c -0.9958,3e-5 -1.6319,0.17576 -1.9083,0.52718 -0.2889,0.29291 -0.44415,0.93724 -0.46572,1.933 l -0.0381,19.154 c 0.004,0.2929 0.002,0.55649 -0.007,0.79078 0.0375,0.17573 0.0751,0.35146 0.11261,0.52718 0.11261,0.52719 0.33411,0.87864 0.66455,1.0544 0.3304,0.17573 0.87635,0.2636 1.6378,0.26359 l 29.961,0 0.0496,10.104 -36.024,0"
     inkscape:connector-curvature="0"
     style="fill:#000000" />
  <path
     id="path3016"
     d="m 145.83989,59.48414 -30.826,-39.011 0.074,39.011 -12.389,0 -0.13,-59.484 12.56,0 27.09,35.497 -0.11,-35.497 12.477,0 0.14241,59.484 -8.8742,0"
     inkscape:connector-curvature="0"
     style="fill:#000000" />
  <path
     id="path3018"
     d="m 160.34989,59.48414 -0.0461,-43.405 13.18,0 0.0288,31.807 18.715,0 c 3.1045,1e-5 4.6602,-1.9037 4.6668,-5.7111 l -0.0208,-24.777 c 0.0255,-0.70287 -0.0305,-1.3765 -0.1681,-2.0209 -0.52555,-2.4601 -2.0477,-3.6902 -4.5664,-3.6903 l -31.894,0 -0.036,-11.686 34.355,0 c 8.6691,6e-5 13.755,3.5146 15.256,10.544 0.31275,1.4644 0.46861,3.0167 0.46756,4.6568 l -0.0259,29.083 c 0.009,4.9789 -1.2632,8.7571 -3.8172,11.334 -2.5541,2.5773 -6.4669,3.866 -11.738,3.866 l -34.355,0"
     inkscape:connector-curvature="0"
     style="fill:#000000" />
  <path
     id="path3020"
     d="m 222.79989,59.48414 c -2.5188,0 -4.4222,-0.41003 -5.7103,-1.2301 -1.2421,-0.87863 -2.057,-2.2259 -2.4448,-4.0417 -0.17517,-0.82005 -0.27272,-1.9623 -0.29265,-3.4267 l -0.0696,-27.062 c 0.006,-2.9873 0.59136,-5.1839 1.7554,-6.5898 1.2227,-1.4058 3.4449,-2.1087 6.6665,-2.1087 l 30.049,0 c 2.2258,4e-5 3.9012,0.43936 5.0261,1.318 1.1709,0.8201 1.9378,2.0795 2.3007,3.7781 0.22517,1.0544 0.33949,2.138 0.34299,3.251 l 0.0447,17.485 -29.61,0 -0.0829,-7.3805 17.924,0 0.0418,-5.9747 c -0.004,-0.29285 -0.0561,-0.67359 -0.15609,-1.1422 -0.10014,-0.46858 -0.3154,-0.79074 -0.64578,-0.9665 -0.27187,-0.17569 -0.75924,-0.26356 -1.4621,-0.26359 l -17.661,0 c -0.9958,3e-5 -1.6319,0.17576 -1.9082,0.52718 -0.28891,0.29291 -0.44416,0.93724 -0.46573,1.933 l -0.0381,19.154 c 0.004,0.2929 0.002,0.55649 -0.007,0.79078 0.0375,0.17573 0.0751,0.35146 0.11261,0.52718 0.11261,0.52719 0.33411,0.87864 0.66455,1.0544 0.3304,0.17573 0.87635,0.2636 1.6378,0.26359 l 29.961,0 0.0496,10.104 -36.024,0"
     inkscape:connector-curvature="0"
     style="fill:#000000" />
  <path
     id="path3022"
     d="m 274.90989,59.48414 c -2.9874,0 -5.238,-0.52718 -6.7518,-1.5815 -1.5139,-1.0544 -2.5086,-2.6945 -2.984,-4.9204 -0.12513,-0.58575 -0.22094,-1.1715 -0.28748,-1.7573 -0.079,-0.64432 -0.11205,-1.3472 -0.099,-2.1087 l -0.10567,-38.748 c 0.0107,-3.5145 0.74257,-6.1211 2.1956,-7.8198 1.5116,-1.6986 4.1417,-2.548 7.8906,-2.548 l 33.476,0 0.0736,11.862 -26.886,0 c -1.4058,5e-5 -2.3223,0.23435 -2.7494,0.70291 -0.38103,0.41008 -0.57409,1.2887 -0.57914,2.6359 l -0.0447,28.995 c 0.004,0.29289 0.002,0.55648 -0.007,0.79077 0.0375,0.17574 0.0813,0.38075 0.13138,0.61504 0.13762,0.64435 0.44274,1.113 0.91533,1.4058 0.47258,0.2929 1.2654,0.43933 2.3782,0.43932 l 27.062,0 0.0232,12.037 -33.652,0"
     inkscape:connector-curvature="0"
     style="fill:#000000" />
  <path
     id="path3024"
     d="m 320.23989,59.48414 c -2.4602,0 -4.3343,-0.41003 -5.6225,-1.2301 -1.2421,-0.87863 -2.057,-2.2259 -2.4448,-4.0417 -0.17517,-0.82005 -0.27272,-1.9623 -0.29265,-3.4267 l -0.0696,-27.062 c 0.006,-2.9873 0.59136,-5.1839 1.7554,-6.5898 1.2227,-1.4058 3.4156,-2.1087 6.5787,-2.1087 l 30.225,0 c 2.5773,4e-5 4.487,0.43936 5.729,1.318 1.2295,0.8201 2.0382,2.138 2.4261,3.9538 0.17512,0.8201 0.27267,1.9623 0.29266,3.4267 l 0.0696,27.062 c -0.006,2.9874 -0.62065,5.184 -1.8432,6.5898 -1.1641,1.4058 -3.3571,2.1087 -6.5787,2.1087 l -30.225,0 m 26.23,-31.367 c -0.008,-0.58572 -0.0245,-0.93717 -0.0495,-1.0544 -0.20024,-0.93717 -1.0911,-1.4058 -2.6726,-1.4058 l -17.397,0 c -0.93723,3e-5 -1.5732,0.17576 -1.9083,0.52718 -0.28891,0.29291 -0.41486,0.93724 -0.37786,1.933 l 0.0883,18.1 c -0.009,0.23432 -0.0233,0.43933 -0.0443,0.61505 0.0375,0.17574 0.0751,0.35146 0.11261,0.52718 0.17516,0.82007 0.90708,1.2301 2.1958,1.2301 l 17.397,0 c 1.0543,1e-5 1.7783,-0.17572 2.1718,-0.52718 0.3935,-0.35145 0.58428,-0.96649 0.57237,-1.8451 l -0.0883,-18.1"
     inkscape:connector-curvature="0"
     style="fill:#000000" />
  <path
     id="path3026"
     d="m 424.24989,59.48414 -0.11,-31.367 c 0.008,-0.23427 -0.006,-0.43928 -0.0435,-0.61504 0.021,-0.1757 0.0127,-0.35142 -0.0247,-0.52718 -0.18775,-0.8786 -1.0138,-1.3179 -2.4781,-1.318 l -13.18,0 c -0.93727,3e-5 -1.5734,0.17576 -1.9083,0.52718 -0.34751,0.29291 -0.52152,0.84938 -0.52204,1.6694 l 0.0791,31.631 -12.301,0 -0.11052,-31.367 c 0.008,-0.23427 -0.006,-0.43928 -0.0435,-0.61504 0.021,-0.1757 0.0127,-0.35142 -0.0247,-0.52718 -0.18771,-0.8786 -0.98446,-1.3179 -2.3902,-1.318 l -13.267,0 c -0.87866,3e-5 -1.4855,0.17576 -1.8204,0.52718 -0.34749,0.29291 -0.53202,0.93724 -0.55359,1.933 l 0.11051,31.367 -12.301,0 -0.0955,-44.459 11.862,0 -0.0221,4.8325 c 1.4205,-3.2216 3.976,-4.8324 7.6662,-4.8325 l 14.849,0 c 2.2258,4e-5 3.9765,0.38078 5.2522,1.1422 1.2756,0.76153 2.124,1.9916 2.5456,3.6903 0.98436,-1.6986 2.0688,-2.9287 3.2534,-3.6903 1.1846,-0.76144 2.714,-1.1422 4.5885,-1.1422 l 14.849,0 c 2.3429,4e-5 4.1648,0.43936 5.4654,1.318 1.288,0.8201 2.1385,2.1966 2.5515,4.1296 0.22515,1.0544 0.33947,2.138 0.34298,3.2509 l 0.0825,35.76 -12.301,0"
     inkscape:connector-curvature="0"
     style="fill:#000000" />
  <path
     id="path3028"
     d="m 458.02989,59.48414 -0.0557,-10.544 14.761,0 c 0.87859,1e-5 1.4623,-0.14643 1.7512,-0.43932 0.33492,-0.35144 0.51318,-1.0251 0.53482,-2.0209 l 0.0185,-18.012 c -0.004,-0.29285 -0.0561,-0.67359 -0.15609,-1.1422 -0.11264,-0.52715 -0.33416,-0.8786 -0.66455,-1.0544 -0.28438,-0.23427 -0.77802,-0.35142 -1.4809,-0.35145 l -19.154,0 -0.0105,52.191 -12.301,0 -0.0328,-63.086 37.606,0 c 2.5773,4e-5 4.487,0.43936 5.729,1.318 1.242,0.87867 2.057,2.2259 2.4448,4.0417 0.23769,1.113 0.35826,2.2259 0.36174,3.3388 l 0.0696,27.062 c 0.006,3.0459 -0.71909,5.2718 -2.176,6.6776 -1.4109,1.3472 -3.5222,2.0209 -6.3338,2.0209 l -20.911,0"
     inkscape:connector-curvature="0"
     style="fill:#000000" />
</svg>
